<?xml version="1.0" encoding="utf-8"?>
<!-- Generator: Adobe Illustrator 22.0.1, SVG Export Plug-In . SVG Version: 6.00 Build 0)  -->
<svg version="1.1" xmlns="http://www.w3.org/2000/svg" xmlns:xlink="http://www.w3.org/1999/xlink" x="0px" y="0px"
	 viewBox="0 0 850.4 283.5" style="enable-background:new 0 0 850.4 283.5;" xml:space="preserve">
<style type="text/css">
	.st0{stroke:#38538E;}
	.st1{stroke:#30487C;}
	.st2{stroke:#3B5795;}
	.st3{stroke:#3F5C9D;}
	.st4{stroke:#2C4374;}
	.st5{stroke:#3A5592;}
	.st6{stroke:#334C83;}
	.st7{stroke:#3F5C9C;}
	.st8{stroke:#324A80;}
	.st9{stroke:#3F5B9C;}
	.st10{stroke:#3E5B9B;}
	.st11{stroke:#395490;}
	.st12{stroke:#3B5794;}
	.st13{stroke:#405D9E;}
	.st14{stroke:#405EA0;}
	.st15{stroke:#4260A3;}
	.st16{stroke:#415FA1;}
	.st17{stroke:#395491;}
	.st18{stroke:#3A5591;}
	.st19{stroke:#3E5A9A;}
	.st20{stroke:#3D5A99;}
	.st21{stroke:#3C5896;}
	.st22{stroke:#4362A6;}
	.st23{stroke:#415FA2;}
	.st24{stroke:#405E9F;}
	.st25{stroke:#415EA1;}
	.st26{stroke:#3C5795;}
	.st27{stroke:#3D5997;}
	.st28{stroke:#3C5897;}
	.st29{stroke:#3B5694;}
	.st30{stroke:#37518B;}
	.st31{stroke:#36508A;}
	.st32{stroke:#324B81;}
	.st33{stroke:#3A5693;}
	.st34{stroke:#354F87;}
	.st35{stroke:#4261A4;}
	.st36{stroke:#4462A7;}
	.st37{stroke:#3D5998;}
	.st38{stroke:#395591;}
	.st39{stroke:#37528C;}
	.st40{stroke:#4361A5;}
	.st41{stroke:#39538F;}
	.st42{stroke:#3F5D9E;}
	.st43{stroke:#4463A8;}
	.st44{stroke:#38528D;}
	.st45{stroke:#334C82;}
	.st46{stroke:#354F88;}
	.st47{stroke:#365089;}
	.st48{stroke:#4564AA;}
	.st49{stroke:#4563A9;}
	.st50{stroke:#2F477B;}
	.st51{stroke:#364F88;}
	.st52{stroke:#39548F;}
	.st53{stroke:#4564A9;}
	.st54{stroke:#31497E;}
	.st55{stroke:#2E4577;}
	.st56{stroke:#4766AD;}
	.st57{stroke:#293F6D;}
	.st58{stroke:#4665AB;}
	.st59{stroke:#4463A9;}
	.st60{stroke:#283D6A;}
	.st61{stroke:#314A7F;}
	.st62{stroke:#263B67;}
	.st63{stroke:#405D9F;}
	.st64{stroke:#3A5692;}
	.st65{stroke:#334D84;}
	.st66{stroke:#253A65;}
	.st67{stroke:#4260A4;}
	.st68{stroke:#2F477A;}
	.st69{stroke:#243863;}
	.st70{stroke:#273B68;}
	.st71{stroke:#21335B;}
	.st72{stroke:#2E4679;}
	.st73{stroke:#22355E;}
	.st74{stroke:#243862;}
	.st75{stroke:#425FA2;}
	.st76{stroke:#20335A;}
	.st77{stroke:#22365E;}
	.st78{stroke:#203359;}
	.st79{stroke:#30487D;}
	.st80{stroke:#21355D;}
	.st81{stroke:#4767AE;}
	.st82{stroke:#354E86;}
	.st83{stroke:#253964;}
	.st84{stroke:#3E5B9C;}
	.st85{stroke:#233660;}
	.st86{stroke:#2C4273;}
	.st87{stroke:#2D4476;}
	.st88{stroke:#21345B;}
	.st89{stroke:#263A66;}
	.st90{stroke:#2B4171;}
	.st91{stroke:#1F3157;}
	.st92{stroke:#203259;}
	.st93{stroke:#1E3055;}
	.st94{stroke:#273C69;}
	.st95{stroke:#2D4475;}
	.st96{stroke:#1F3156;}
	.st97{stroke:#253963;}
	.st98{stroke:#1F3258;}
	.st99{stroke:#1C2D50;}
	.st100{stroke:#1B2C4F;}
	.st101{fill:#38538E;}
	.st102{fill:#30487C;}
	.st103{fill:#3B5795;}
	.st104{fill:#3F5C9D;}
	.st105{fill:#2C4374;}
	.st106{fill:#3A5592;}
	.st107{fill:#334C83;}
	.st108{fill:#3F5C9C;}
	.st109{fill:#324A80;}
	.st110{fill:#3F5B9C;}
	.st111{fill:#3E5B9B;}
	.st112{fill:#395490;}
	.st113{fill:#3B5794;}
	.st114{fill:#405D9E;}
	.st115{fill:#405EA0;}
	.st116{fill:#4260A3;}
	.st117{fill:#415FA1;}
	.st118{fill:#395491;}
	.st119{fill:#3A5591;}
	.st120{fill:#3E5A9A;}
	.st121{fill:#3D5A99;}
	.st122{fill:#3C5896;}
	.st123{fill:#4362A6;}
	.st124{fill:#415FA2;}
	.st125{fill:#405E9F;}
	.st126{fill:#415EA1;}
	.st127{fill:#3C5795;}
	.st128{fill:#3D5997;}
	.st129{fill:#3C5897;}
	.st130{fill:#3B5694;}
	.st131{fill:#37518B;}
	.st132{fill:#36508A;}
	.st133{fill:#324B81;}
	.st134{fill:#3A5693;}
	.st135{fill:#354F87;}
	.st136{fill:#4261A4;}
	.st137{fill:#4462A7;}
	.st138{fill:#3D5998;}
	.st139{fill:#395591;}
	.st140{fill:#37528C;}
	.st141{fill:#4361A5;}
	.st142{fill:#39538F;}
	.st143{fill:#3F5D9E;}
	.st144{fill:#4463A8;}
	.st145{fill:#38528D;}
	.st146{fill:#334C82;}
	.st147{fill:#354F88;}
	.st148{fill:#365089;}
	.st149{fill:#4564AA;}
	.st150{fill:#4563A9;}
	.st151{fill:#2F477B;}
	.st152{fill:#364F88;}
	.st153{fill:#39548F;}
	.st154{fill:#4564A9;}
	.st155{fill:#31497E;}
	.st156{fill:#2E4577;}
	.st157{fill:#4766AD;}
	.st158{fill:#293F6D;}
	.st159{fill:#4665AB;}
	.st160{fill:#4463A9;}
	.st161{fill:#283D6A;}
	.st162{fill:#314A7F;}
	.st163{fill:#263B67;}
	.st164{fill:#405D9F;}
	.st165{fill:#3A5692;}
	.st166{fill:#334D84;}
	.st167{fill:#253A65;}
	.st168{fill:#4260A4;}
	.st169{fill:#2F477A;}
	.st170{fill:#243863;}
	.st171{fill:#273B68;}
	.st172{fill:#21335B;}
	.st173{fill:#2E4679;}
	.st174{fill:#22355E;}
	.st175{fill:#243862;}
	.st176{fill:#425FA2;}
	.st177{fill:#20335A;}
	.st178{fill:#22365E;}
	.st179{fill:#203359;}
	.st180{fill:#30487D;}
	.st181{fill:#21355D;}
	.st182{fill:#4767AE;}
	.st183{fill:#354E86;}
	.st184{fill:#253964;}
	.st185{fill:#3E5B9C;}
	.st186{fill:#233660;}
	.st187{fill:#2C4273;}
	.st188{fill:#2D4476;}
	.st189{fill:#21345B;}
	.st190{fill:#263A66;}
	.st191{fill:#2B4171;}
	.st192{fill:#1F3157;}
	.st193{fill:#203259;}
	.st194{fill:#1E3055;}
	.st195{fill:#273C69;}
	.st196{fill:#2D4475;}
	.st197{fill:#1F3156;}
	.st198{fill:#253963;}
	.st199{fill:#1F3258;}
	.st200{fill:#1C2D50;}
	.st201{fill:#1B2C4F;}
	.st202{fill:#FFFFFF;}
	.st203{font-family:'Lobster-Regular';}
	.st204{font-size:108px;}
</style>
<g id="图层_1">
	<polygon class="st0" points="-20.4,255.6 6.1,328.3 13.3,296.7 	"/>
	<polygon class="st1" points="-2.6,-37.2 -58.9,92.7 16.3,31.8 	"/>
	<polygon class="st2" points="-58.9,92.7 -8.6,176.8 41.2,137 	"/>
	<polygon class="st3" points="16.3,31.8 -58.9,92.7 41.2,137 	"/>
	<polygon class="st4" points="-2.6,-37.2 16.3,31.8 92.2,-18.7 	"/>
	<polygon class="st5" points="-8.6,176.8 -20.4,255.6 13.3,296.7 	"/>
	<polygon class="st6" points="92.2,-18.7 16.3,31.8 106.3,18 	"/>
	<polygon class="st3" points="16.3,31.8 41.2,137 106.3,18 	"/>
	<polygon class="st7" points="-8.6,176.8 13.3,296.7 41.2,137 	"/>
	<polygon class="st8" points="92.2,-18.7 106.3,18 112.3,-29.5 	"/>
	<polygon class="st9" points="127,178.4 41.2,137 135.3,246.9 	"/>
	<polygon class="st10" points="41.2,137 13.3,296.7 135.3,246.9 	"/>
	<polygon class="st11" points="13.3,296.7 101.8,352.2 135.3,246.9 	"/>
	<polygon class="st12" points="112.3,-29.5 106.3,18 156,26.5 	"/>
	<polygon class="st13" points="106.3,18 41.2,137 127,178.4 	"/>
	<polygon class="st2" points="135.3,246.9 165.1,260.1 171.9,250.6 	"/>
	<polygon class="st14" points="106.3,18 127,178.4 163.5,143.8 	"/>
	<polygon class="st15" points="106.3,18 163.5,143.8 176.8,58.3 	"/>
	<polygon class="st13" points="156,26.5 106.3,18 176.8,58.3 	"/>
	<polygon class="st16" points="166.2,34.3 156,26.5 176.8,58.3 	"/>
	<polygon class="st17" points="135.3,246.9 159.8,351.2 165.1,260.1 	"/>
	<polygon class="st18" points="135.3,246.9 101.8,352.2 159.8,351.2 	"/>
	<polygon class="st19" points="163.5,143.8 127,178.4 184.7,186.8 	"/>
	<polygon class="st20" points="127,178.4 135.3,246.9 184.7,186.8 	"/>
	<polygon class="st19" points="163.5,143.8 184.7,186.8 190.4,181.8 	"/>
	<polygon class="st21" points="135.3,246.9 171.9,250.6 184.7,186.8 	"/>
	<polygon class="st22" points="156,26.5 166.2,34.3 216.8,15 	"/>
	<polygon class="st23" points="166.2,34.3 176.8,58.3 216.8,15 	"/>
	<polygon class="st3" points="163.5,143.8 190.4,181.8 223.6,150.3 	"/>
	<polygon class="st1" points="120.5,-79.1 112.3,-29.5 156,26.5 	"/>
	<polygon class="st24" points="163.5,143.8 223.6,150.3 233.3,137.2 	"/>
	<polygon class="st25" points="176.8,58.3 163.5,143.8 233.3,137.2 	"/>
	<polygon class="st26" points="223.6,150.3 232.8,164.9 233.3,137.2 	"/>
	<polygon class="st7" points="223.6,150.3 190.4,181.8 232.8,164.9 	"/>
	<polygon class="st27" points="190.4,181.8 184.7,186.8 227.3,248.4 	"/>
	<polygon class="st28" points="184.7,186.8 171.9,250.6 227.3,248.4 	"/>
	<polygon class="st5" points="171.9,250.6 165.1,260.1 227.3,248.4 	"/>
	<polygon class="st0" points="120.5,-79.1 156,26.5 216.8,15 	"/>
	<polygon class="st29" points="165.1,260.1 159.8,351.2 197.8,365.7 	"/>
	<polygon class="st30" points="165.1,260.1 197.8,365.7 248.9,309.8 	"/>
	<polygon class="st31" points="227.3,248.4 165.1,260.1 248.9,309.8 	"/>
	<polygon class="st32" points="120.5,-79.1 216.8,15 249,-90.8 	"/>
	<polygon class="st28" points="190.4,181.8 227.3,248.4 232.8,164.9 	"/>
	<polygon class="st33" points="232.8,164.9 227.3,248.4 275.2,186.6 	"/>
	<polygon class="st34" points="248.9,309.8 197.8,365.7 251.3,401.1 	"/>
	<polygon class="st35" points="216.8,15 176.8,58.3 233.3,137.2 	"/>
	<polygon class="st36" points="249,-90.8 216.8,15 280.5,-33.8 	"/>
	<polygon class="st37" points="233.3,137.2 232.8,164.9 275.2,186.6 	"/>
	<polygon class="st0" points="338.9,171 275.2,186.6 339.8,204.4 	"/>
	<polygon class="st38" points="227.3,248.4 248.9,309.8 275.2,186.6 	"/>
	<polygon class="st39" points="339.8,204.4 275.2,186.6 345.7,218.5 	"/>
	<polygon class="st11" points="275.2,186.6 248.9,309.8 345.7,218.5 	"/>
	<polygon class="st5" points="233.3,137.2 275.2,186.6 338.9,171 	"/>
	<polygon class="st40" points="216.8,15 233.3,137.2 280.5,-33.8 	"/>
	<polygon class="st41" points="233.3,137.2 338.9,171 362.2,144.4 	"/>
	<polygon class="st19" points="280.5,-33.8 362.2,144.4 374.5,126.6 	"/>
	<polygon class="st42" points="280.5,-33.8 233.3,137.2 362.2,144.4 	"/>
	<polygon class="st43" points="308.2,-41.8 280.5,-33.8 390,43.9 	"/>
	<polygon class="st43" points="325.4,-41.1 308.2,-41.8 390,43.9 	"/>
	<polygon class="st16" points="280.5,-33.8 374.5,126.6 390,43.9 	"/>
	<polygon class="st44" points="374.5,126.6 362.2,144.4 391.3,129.6 	"/>
	<polygon class="st32" points="248.9,309.8 251.3,401.1 401.6,329.8 	"/>
	<polygon class="st45" points="345.7,218.5 248.9,309.8 401.6,329.8 	"/>
	<polygon class="st39" points="338.9,171 339.8,204.4 362.2,144.4 	"/>
	<polygon class="st0" points="339.8,204.4 345.7,218.5 362.2,144.4 	"/>
	<polygon class="st18" points="390,43.9 374.5,126.6 391.3,129.6 	"/>
	<polygon class="st46" points="362.2,144.4 345.7,218.5 421.8,216.4 	"/>
	<polygon class="st47" points="391.3,129.6 362.2,144.4 421.8,216.4 	"/>
	<polygon class="st48" points="366.4,-88.3 325.4,-41.1 390,43.9 	"/>
	<polygon class="st6" points="345.7,218.5 401.6,329.8 421.8,216.4 	"/>
	<polygon class="st49" points="366.4,-88.3 390,43.9 443.5,-10.6 	"/>
	<polygon class="st50" points="401.6,329.8 412,326.5 421.8,216.4 	"/>
	<polygon class="st39" points="390,43.9 391.3,129.6 473.5,103.3 	"/>
	<polygon class="st51" points="391.3,129.6 421.8,216.4 473.4,152.2 	"/>
	<polygon class="st30" points="391.3,129.6 473.4,152.2 473.5,103.3 	"/>
	<polygon class="st52" points="471.3,-0.1 473.5,103.3 484.1,94.7 	"/>
	<polygon class="st10" points="471.3,-0.1 443.5,-10.6 473.5,103.3 	"/>
	<polygon class="st37" points="443.5,-10.6 390,43.9 473.5,103.3 	"/>
	<polygon class="st53" points="459.4,-89.6 443.5,-10.6 471.3,-0.1 	"/>
	<polygon class="st54" points="473.4,152.2 421.8,216.4 508.5,244.2 	"/>
	<polygon class="st55" points="421.8,216.4 412,326.5 508.5,244.2 	"/>
	<polygon class="st56" points="459.4,-89.6 471.3,-0.1 501.4,-85.9 	"/>
	<polygon class="st57" points="412,326.5 506.1,349.7 508.5,244.2 	"/>
	<polygon class="st47" points="473.5,103.3 473.4,152.2 484.1,94.7 	"/>
	<polygon class="st21" points="471.3,-0.1 484.1,94.7 527.6,69.7 	"/>
	<polygon class="st58" points="501.4,-85.9 471.3,-0.1 539.9,-2.8 	"/>
	<polygon class="st59" points="471.3,-0.1 527.6,69.7 539.9,-2.8 	"/>
	<polygon class="st60" points="543.2,230.9 508.5,244.2 551.2,251.1 	"/>
	<polygon class="st6" points="527.6,69.7 484.1,94.7 555,129.5 	"/>
	<polygon class="st61" points="484.1,94.7 473.4,152.2 555,129.5 	"/>
	<polygon class="st4" points="473.4,152.2 508.5,244.2 543.2,230.9 	"/>
	<polygon class="st54" points="473.4,152.2 543.2,230.9 555,129.5 	"/>
	<polygon class="st62" points="508.5,244.2 506.1,349.7 551.2,251.1 	"/>
	<polygon class="st63" points="539.9,-2.8 527.6,69.7 575.5,38.4 	"/>
	<polygon class="st64" points="527.6,69.7 555,129.5 585.5,88.2 	"/>
	<polygon class="st65" points="555,129.5 543.2,230.9 585.1,195.4 	"/>
	<polygon class="st20" points="575.5,38.4 527.6,69.7 585.5,88.2 	"/>
	<polygon class="st66" points="506.1,349.7 547.2,370.3 551.2,251.1 	"/>
	<polygon class="st31" points="585.5,88.2 555,129.5 595.2,126.4 	"/>
	<polygon class="st54" points="543.2,230.9 551.2,251.1 585.1,195.4 	"/>
	<polygon class="st67" points="539.9,-2.8 575.5,38.4 584.6,-27.1 	"/>
	<polygon class="st68" points="555,129.5 585.1,195.4 595.2,126.4 	"/>
	<polygon class="st69" points="551.2,251.1 547.2,370.3 602.7,350.5 	"/>
	<polygon class="st66" points="619.1,248.1 551.2,251.1 619.4,258.2 	"/>
	<polygon class="st70" points="585.1,195.4 551.2,251.1 619.1,248.1 	"/>
	<polygon class="st71" points="585.1,195.4 619.1,248.1 630.3,213.7 	"/>
	<polygon class="st72" points="551.2,251.1 602.7,350.5 619.4,258.2 	"/>
	<polygon class="st16" points="584.6,-27.1 575.5,38.4 631.5,9.6 	"/>
	<polygon class="st71" points="630.3,213.7 619.1,248.1 635.4,240.3 	"/>
	<polygon class="st73" points="619.1,248.1 619.4,258.2 635.4,240.3 	"/>
	<polygon class="st37" points="575.5,38.4 585.5,88.2 631.5,9.6 	"/>
	<polygon class="st74" points="595.2,126.4 585.1,195.4 630.3,213.7 	"/>
	<polygon class="st6" points="631.5,9.6 585.5,88.2 659.7,56.7 	"/>
	<polygon class="st62" points="619.4,258.2 602.7,350.5 668.5,310.9 	"/>
	<polygon class="st75" points="621.5,-95 584.6,-27.1 631.5,9.6 	"/>
	<polygon class="st76" points="635.4,240.3 619.4,258.2 671.3,268.9 	"/>
	<polygon class="st11" points="585.5,88.2 595.2,126.4 659.7,56.7 	"/>
	<polygon class="st77" points="619.4,258.2 668.5,310.9 671.3,268.9 	"/>
	<polygon class="st76" points="635.4,240.3 671.3,268.9 685.4,240.1 	"/>
	<polygon class="st78" points="630.3,213.7 635.4,240.3 685.4,240.1 	"/>
	<polygon class="st79" points="631.5,9.6 659.7,56.7 695.3,26.2 	"/>
	<polygon class="st80" points="671.3,268.9 668.5,310.9 694.1,311.7 	"/>
	<polygon class="st81" points="621.5,-95 631.5,9.6 690.8,-104.4 	"/>
	<polygon class="st33" points="690.8,-104.4 631.5,9.6 695.3,26.2 	"/>
	<polygon class="st82" points="595.2,126.4 630.3,213.7 659.7,56.7 	"/>
	<polygon class="st83" points="671.3,268.9 694.1,311.7 724.9,243.4 	"/>
	<polygon class="st76" points="685.4,240.1 671.3,268.9 724.9,243.4 	"/>
	<polygon class="st84" points="690.8,-104.4 695.3,26.2 739.6,-68.4 	"/>
	<polygon class="st83" points="695.3,26.2 659.7,56.7 756.5,96.8 	"/>
	<polygon class="st55" points="659.7,56.7 630.3,213.7 685.4,240.1 	"/>
	<polygon class="st69" points="659.7,56.7 685.4,240.1 756.5,96.8 	"/>
	<polygon class="st66" points="756.5,96.8 685.4,240.1 772.6,185.4 	"/>
	<polygon class="st55" points="685.4,240.1 724.9,243.4 772.6,185.4 	"/>
	<polygon class="st85" points="724.9,243.4 694.1,311.7 758.2,338.5 	"/>
	<polygon class="st76" points="724.9,243.4 758.2,338.5 790.8,276.5 	"/>
	<polygon class="st86" points="772.6,185.4 724.9,243.4 790.8,276.5 	"/>
	<polygon class="st87" points="772.6,185.4 790.8,276.5 807.7,206 	"/>
	<polygon class="st88" points="695.3,26.2 756.5,96.8 805.2,64.3 	"/>
	<polygon class="st89" points="739.6,-68.4 695.3,26.2 805.2,64.3 	"/>
	<polygon class="st90" points="739.6,-68.4 805.2,64.3 826.5,-61.2 	"/>
	<polygon class="st91" points="756.5,96.8 772.6,185.4 805.2,64.3 	"/>
	<polygon class="st92" points="772.6,185.4 807.7,206 865.2,130.5 	"/>
	<polygon class="st93" points="805.2,64.3 772.6,185.4 865.2,130.5 	"/>
	<polygon class="st94" points="865,215.4 807.7,206 873.7,250.8 	"/>
	<polygon class="st95" points="807.7,206 790.8,276.5 873.7,250.8 	"/>
	<polygon class="st88" points="790.8,276.5 758.2,338.5 814.8,412.4 	"/>
	<polygon class="st96" points="805.2,64.3 865.2,130.5 877.7,80.3 	"/>
	<polygon class="st77" points="790.8,276.5 814.8,412.4 874.5,382.3 	"/>
	<polygon class="st97" points="807.7,206 865,215.4 865.2,130.5 	"/>
	<polygon class="st98" points="873.7,250.8 790.8,276.5 874.5,382.3 	"/>
	<polygon class="st99" points="826.5,-61.2 805.2,64.3 877.7,80.3 	"/>
	<polygon class="st100" points="826.5,-61.2 877.7,80.3 894.5,79 	"/>
	<polygon class="st101" points="-20.4,255.6 6.1,328.3 13.3,296.7 	"/>
	<polygon class="st102" points="-2.6,-37.2 -58.9,92.7 16.3,31.8 	"/>
	<polygon class="st103" points="-58.9,92.7 -8.6,176.8 41.2,137 	"/>
	<polygon class="st104" points="16.3,31.8 -58.9,92.7 41.2,137 	"/>
	<polygon class="st105" points="-2.6,-37.2 16.3,31.8 92.2,-18.7 	"/>
	<polygon class="st106" points="-8.6,176.8 -20.4,255.6 13.3,296.7 	"/>
	<polygon class="st107" points="92.2,-18.7 16.3,31.8 106.3,18 	"/>
	<polygon class="st104" points="16.3,31.8 41.2,137 106.3,18 	"/>
	<polygon class="st108" points="-8.6,176.8 13.3,296.7 41.2,137 	"/>
	<polygon class="st109" points="92.2,-18.7 106.3,18 112.3,-29.5 	"/>
	<polygon class="st110" points="127,178.4 41.2,137 135.3,246.9 	"/>
	<polygon class="st111" points="41.2,137 13.3,296.7 135.3,246.9 	"/>
	<polygon class="st112" points="13.3,296.7 101.8,352.2 135.3,246.9 	"/>
	<polygon class="st113" points="112.3,-29.5 106.3,18 156,26.5 	"/>
	<polygon class="st114" points="106.3,18 41.2,137 127,178.4 	"/>
	<polygon class="st103" points="135.3,246.9 165.1,260.1 171.9,250.6 	"/>
	<polygon class="st115" points="106.3,18 127,178.4 163.5,143.8 	"/>
	<polygon class="st116" points="106.3,18 163.5,143.8 176.8,58.3 	"/>
	<polygon class="st114" points="156,26.5 106.3,18 176.8,58.3 	"/>
	<polygon class="st117" points="166.2,34.3 156,26.5 176.8,58.3 	"/>
	<polygon class="st118" points="135.3,246.9 159.8,351.2 165.1,260.1 	"/>
	<polygon class="st119" points="135.3,246.9 101.8,352.2 159.8,351.2 	"/>
	<polygon class="st120" points="163.5,143.8 127,178.4 184.7,186.8 	"/>
	<polygon class="st121" points="127,178.4 135.3,246.9 184.7,186.8 	"/>
	<polygon class="st120" points="163.5,143.8 184.7,186.8 190.4,181.8 	"/>
	<polygon class="st122" points="135.3,246.9 171.9,250.6 184.7,186.8 	"/>
	<polygon class="st123" points="156,26.5 166.2,34.3 216.8,15 	"/>
	<polygon class="st124" points="166.2,34.3 176.8,58.3 216.8,15 	"/>
	<polygon class="st104" points="163.5,143.8 190.4,181.8 223.6,150.3 	"/>
	<polygon class="st102" points="120.5,-79.1 112.3,-29.5 156,26.5 	"/>
	<polygon class="st125" points="163.5,143.8 223.6,150.3 233.3,137.2 	"/>
	<polygon class="st126" points="176.8,58.3 163.5,143.8 233.3,137.2 	"/>
	<polygon class="st127" points="223.6,150.3 232.8,164.9 233.3,137.2 	"/>
	<polygon class="st108" points="223.6,150.3 190.4,181.8 232.8,164.9 	"/>
	<polygon class="st128" points="190.4,181.8 184.7,186.8 227.3,248.4 	"/>
	<polygon class="st129" points="184.7,186.8 171.9,250.6 227.3,248.4 	"/>
	<polygon class="st106" points="171.9,250.6 165.1,260.1 227.3,248.4 	"/>
	<polygon class="st101" points="120.5,-79.1 156,26.5 216.8,15 	"/>
	<polygon class="st130" points="165.1,260.1 159.8,351.2 197.8,365.7 	"/>
	<polygon class="st131" points="165.1,260.1 197.8,365.7 248.9,309.8 	"/>
	<polygon class="st132" points="227.3,248.4 165.1,260.1 248.9,309.8 	"/>
	<polygon class="st133" points="120.5,-79.1 216.8,15 249,-90.8 	"/>
	<polygon class="st129" points="190.4,181.8 227.3,248.4 232.8,164.9 	"/>
	<polygon class="st134" points="232.8,164.9 227.3,248.4 275.2,186.6 	"/>
	<polygon class="st135" points="248.9,309.8 197.8,365.7 251.3,401.1 	"/>
	<polygon class="st136" points="216.8,15 176.8,58.3 233.3,137.2 	"/>
	<polygon class="st137" points="249,-90.8 216.8,15 280.5,-33.8 	"/>
	<polygon class="st138" points="233.3,137.2 232.8,164.9 275.2,186.6 	"/>
	<polygon class="st101" points="338.9,171 275.2,186.6 339.8,204.4 	"/>
	<polygon class="st139" points="227.3,248.4 248.9,309.8 275.2,186.6 	"/>
	<polygon class="st140" points="339.8,204.4 275.2,186.6 345.7,218.5 	"/>
	<polygon class="st112" points="275.2,186.6 248.9,309.8 345.7,218.5 	"/>
	<polygon class="st106" points="233.3,137.2 275.2,186.6 338.9,171 	"/>
	<polygon class="st141" points="216.8,15 233.3,137.2 280.5,-33.8 	"/>
	<polygon class="st142" points="233.3,137.2 338.9,171 362.2,144.4 	"/>
	<polygon class="st120" points="280.5,-33.8 362.2,144.4 374.5,126.6 	"/>
	<polygon class="st143" points="280.5,-33.8 233.3,137.2 362.2,144.4 	"/>
	<polygon class="st144" points="308.2,-41.8 280.5,-33.8 390,43.9 	"/>
	<polygon class="st144" points="325.4,-41.1 308.2,-41.8 390,43.9 	"/>
	<polygon class="st117" points="280.5,-33.8 374.5,126.6 390,43.9 	"/>
	<polygon class="st145" points="374.5,126.6 362.2,144.4 391.3,129.6 	"/>
	<polygon class="st133" points="248.9,309.8 251.3,401.1 401.6,329.8 	"/>
	<polygon class="st146" points="345.7,218.5 248.9,309.8 401.6,329.8 	"/>
	<polygon class="st140" points="338.9,171 339.8,204.4 362.2,144.4 	"/>
	<polygon class="st101" points="339.8,204.4 345.7,218.5 362.2,144.4 	"/>
	<polygon class="st119" points="390,43.9 374.5,126.6 391.3,129.6 	"/>
	<polygon class="st147" points="362.2,144.4 345.7,218.5 421.8,216.4 	"/>
	<polygon class="st148" points="391.3,129.6 362.2,144.4 421.8,216.4 	"/>
	<polygon class="st149" points="366.4,-88.3 325.4,-41.1 390,43.9 	"/>
	<polygon class="st107" points="345.7,218.5 401.6,329.8 421.8,216.4 	"/>
	<polygon class="st150" points="366.4,-88.3 390,43.9 443.5,-10.6 	"/>
	<polygon class="st151" points="401.6,329.8 412,326.5 421.8,216.4 	"/>
	<polygon class="st140" points="390,43.9 391.3,129.6 473.5,103.3 	"/>
	<polygon class="st152" points="391.3,129.6 421.8,216.4 473.4,152.2 	"/>
	<polygon class="st131" points="391.3,129.6 473.4,152.2 473.5,103.3 	"/>
	<polygon class="st153" points="471.3,-0.1 473.5,103.3 484.1,94.7 	"/>
	<polygon class="st111" points="471.3,-0.1 443.5,-10.6 473.5,103.3 	"/>
	<polygon class="st138" points="443.5,-10.6 390,43.9 473.5,103.3 	"/>
	<polygon class="st154" points="459.4,-89.6 443.5,-10.6 471.3,-0.1 	"/>
	<polygon class="st155" points="473.4,152.2 421.8,216.4 508.5,244.2 	"/>
	<polygon class="st156" points="421.8,216.4 412,326.5 508.5,244.2 	"/>
	<polygon class="st157" points="459.4,-89.6 471.3,-0.1 501.4,-85.9 	"/>
	<polygon class="st158" points="412,326.5 506.1,349.7 508.5,244.2 	"/>
	<polygon class="st148" points="473.5,103.3 473.4,152.2 484.1,94.7 	"/>
	<polygon class="st122" points="471.3,-0.1 484.1,94.7 527.6,69.7 	"/>
	<polygon class="st159" points="501.4,-85.9 471.3,-0.1 539.9,-2.8 	"/>
	<polygon class="st160" points="471.3,-0.1 527.6,69.7 539.9,-2.8 	"/>
	<polygon class="st161" points="543.2,230.9 508.5,244.2 551.2,251.1 	"/>
	<polygon class="st107" points="527.6,69.7 484.1,94.7 555,129.5 	"/>
	<polygon class="st162" points="484.1,94.7 473.4,152.2 555,129.5 	"/>
	<polygon class="st105" points="473.4,152.2 508.5,244.2 543.2,230.9 	"/>
	<polygon class="st155" points="473.4,152.2 543.2,230.9 555,129.5 	"/>
	<polygon class="st163" points="508.5,244.2 506.1,349.7 551.2,251.1 	"/>
	<polygon class="st164" points="539.9,-2.8 527.6,69.7 575.5,38.4 	"/>
	<polygon class="st165" points="527.6,69.7 555,129.5 585.5,88.2 	"/>
	<polygon class="st166" points="555,129.5 543.2,230.9 585.1,195.4 	"/>
	<polygon class="st121" points="575.5,38.4 527.6,69.7 585.5,88.2 	"/>
	<polygon class="st167" points="506.1,349.7 547.2,370.3 551.2,251.1 	"/>
	<polygon class="st132" points="585.5,88.2 555,129.5 595.2,126.4 	"/>
	<polygon class="st155" points="543.2,230.9 551.2,251.1 585.1,195.4 	"/>
	<polygon class="st168" points="539.9,-2.8 575.5,38.4 584.6,-27.1 	"/>
	<polygon class="st169" points="555,129.5 585.1,195.4 595.2,126.4 	"/>
	<polygon class="st170" points="551.2,251.1 547.2,370.3 602.7,350.5 	"/>
	<polygon class="st167" points="619.1,248.1 551.2,251.1 619.4,258.2 	"/>
	<polygon class="st171" points="585.1,195.4 551.2,251.1 619.1,248.1 	"/>
	<polygon class="st172" points="585.1,195.4 619.1,248.1 630.3,213.7 	"/>
	<polygon class="st173" points="551.2,251.1 602.7,350.5 619.4,258.2 	"/>
	<polygon class="st117" points="584.6,-27.1 575.5,38.4 631.5,9.6 	"/>
	<polygon class="st172" points="630.3,213.7 619.1,248.1 635.4,240.3 	"/>
	<polygon class="st174" points="619.1,248.1 619.4,258.2 635.4,240.3 	"/>
	<polygon class="st138" points="575.5,38.4 585.5,88.2 631.5,9.6 	"/>
	<polygon class="st175" points="595.2,126.4 585.1,195.4 630.3,213.7 	"/>
	<polygon class="st107" points="631.5,9.6 585.5,88.2 659.7,56.7 	"/>
	<polygon class="st163" points="619.4,258.2 602.7,350.5 668.5,310.9 	"/>
	<polygon class="st176" points="621.5,-95 584.6,-27.1 631.5,9.6 	"/>
	<polygon class="st177" points="635.4,240.3 619.4,258.2 671.3,268.9 	"/>
	<polygon class="st112" points="585.5,88.2 595.2,126.4 659.7,56.7 	"/>
	<polygon class="st178" points="619.4,258.2 668.5,310.9 671.3,268.9 	"/>
	<polygon class="st177" points="635.4,240.3 671.3,268.9 685.4,240.1 	"/>
	<polygon class="st179" points="630.3,213.7 635.4,240.3 685.4,240.1 	"/>
	<polygon class="st180" points="631.5,9.6 659.7,56.7 695.3,26.2 	"/>
	<polygon class="st181" points="671.3,268.9 668.5,310.9 694.1,311.7 	"/>
	<polygon class="st182" points="621.5,-95 631.5,9.6 690.8,-104.4 	"/>
	<polygon class="st134" points="690.8,-104.4 631.5,9.6 695.3,26.2 	"/>
	<polygon class="st183" points="595.2,126.4 630.3,213.7 659.7,56.7 	"/>
	<polygon class="st184" points="671.3,268.9 694.1,311.7 724.9,243.4 	"/>
	<polygon class="st177" points="685.4,240.1 671.3,268.9 724.9,243.4 	"/>
	<polygon class="st185" points="690.8,-104.4 695.3,26.2 739.6,-68.4 	"/>
	<polygon class="st184" points="695.3,26.2 659.7,56.7 756.5,96.8 	"/>
	<polygon class="st156" points="659.7,56.7 630.3,213.7 685.4,240.1 	"/>
	<polygon class="st170" points="659.7,56.7 685.4,240.1 756.5,96.8 	"/>
	<polygon class="st167" points="756.5,96.8 685.4,240.1 772.6,185.4 	"/>
	<polygon class="st156" points="685.4,240.1 724.9,243.4 772.6,185.4 	"/>
	<polygon class="st186" points="724.9,243.4 694.1,311.7 758.2,338.5 	"/>
	<polygon class="st177" points="724.9,243.4 758.2,338.5 790.8,276.5 	"/>
	<polygon class="st187" points="772.6,185.4 724.9,243.4 790.8,276.5 	"/>
	<polygon class="st188" points="772.6,185.4 790.8,276.5 807.7,206 	"/>
	<polygon class="st189" points="695.3,26.2 756.5,96.8 805.2,64.3 	"/>
	<polygon class="st190" points="739.6,-68.4 695.3,26.2 805.2,64.3 	"/>
	<polygon class="st191" points="739.6,-68.4 805.2,64.3 826.5,-61.2 	"/>
	<polygon class="st192" points="756.5,96.8 772.6,185.4 805.2,64.3 	"/>
	<polygon class="st193" points="772.6,185.4 807.7,206 865.2,130.5 	"/>
	<polygon class="st194" points="805.2,64.3 772.6,185.4 865.2,130.5 	"/>
	<polygon class="st195" points="865,215.4 807.7,206 873.7,250.8 	"/>
	<polygon class="st196" points="807.7,206 790.8,276.5 873.7,250.8 	"/>
	<polygon class="st189" points="790.8,276.5 758.2,338.5 814.8,412.4 	"/>
	<polygon class="st197" points="805.2,64.3 865.2,130.5 877.7,80.3 	"/>
	<polygon class="st178" points="790.8,276.5 814.8,412.4 874.5,382.3 	"/>
	<polygon class="st198" points="807.7,206 865,215.4 865.2,130.5 	"/>
	<polygon class="st199" points="873.7,250.8 790.8,276.5 874.5,382.3 	"/>
	<polygon class="st200" points="826.5,-61.2 805.2,64.3 877.7,80.3 	"/>
	<polygon class="st201" points="826.5,-61.2 877.7,80.3 894.5,79 	"/>
</g>
<g id="图层_2">
	<text transform="matrix(1 0 0 1 273.4521 182.72)" class="st202 st203 st204">DeMap</text>
</g>
</svg>
